<svg xmlns="http://www.w3.org/2000/svg" xmlns:xlink="http://www.w3.org/1999/xlink" width="400" zoomAndPan="magnify" viewBox="0 0 300 262.499992" height="350" preserveAspectRatio="xMidYMid meet" version="1.0"><defs><g/><clipPath id="id1"><path d="M 80 0 L 220.574219 0 L 220.574219 141 L 80 141 Z M 80 0 " clip-rule="nonzero"/></clipPath><clipPath id="id2"><path d="M 94 140 L 149 140 L 149 201.140625 L 94 201.140625 Z M 94 140 " clip-rule="nonzero"/></clipPath></defs><g clip-path="url(#id1)"><path fill="#ffffff" d="M 138.429688 1.046875 C 109.597656 5.875 85.9375 29.3125 80.878906 58.015625 C 79.832031 64.214844 79.832031 76.015625 80.878906 82.160156 C 83.410156 96.484375 90.230469 109.546875 100.628906 119.808594 C 110.203125 129.25 120.050781 134.847656 133.3125 138.304688 C 140.523438 140.167969 154.21875 140.664062 162.035156 139.347656 C 187.453125 134.902344 208.527344 116.792969 216.726562 92.371094 C 219.585938 83.753906 220.519531 77.222656 220.191406 67.675781 C 219.972656 62.679688 219.476562 57.960938 218.761719 55.050781 C 212.214844 26.789062 190.039062 5.933594 161.539062 1.046875 C 155.265625 0.0078125 144.8125 0.0078125 138.429688 1.046875 Z M 164.511719 15.535156 C 181.785156 20.089844 197.082031 33.921875 203.246094 50.660156 C 205.886719 57.847656 206.273438 60.480469 206.324219 70.140625 C 206.324219 80.40625 205.554688 84.578125 202.199219 92.535156 C 192.734375 114.648438 168.359375 129.027344 144.648438 126.394531 C 124.34375 124.199219 107.34375 112.070312 98.761719 93.851562 C 83.464844 61.308594 102.777344 22.78125 138.375 14.933594 C 144.8125 13.503906 158.070312 13.835938 164.511719 15.535156 Z M 164.511719 15.535156 " fill-opacity="1" fill-rule="nonzero"/></g><path fill="#ffffff" d="M 144.867188 47.917969 L 139.695312 58.617188 L 128.140625 60.207031 C 121.8125 61.089844 116.53125 61.910156 116.363281 62.074219 C 116.199219 62.183594 119.886719 65.972656 124.5625 70.417969 L 133.089844 78.484375 L 131.109375 89.953125 C 130.011719 96.265625 129.183594 101.535156 129.296875 101.589844 C 129.40625 101.699219 133.917969 99.503906 139.308594 96.648438 C 144.703125 93.851562 149.378906 91.488281 149.761719 91.382812 C 150.148438 91.269531 154.824219 93.519531 160.21875 96.320312 C 165.609375 99.121094 170.285156 101.480469 170.617188 101.589844 C 170.945312 101.699219 170.394531 97.144531 169.242188 90.117188 L 167.257812 78.484375 L 175.734375 70.363281 C 180.847656 65.367188 183.875 62.128906 183.4375 61.964844 C 182.996094 61.800781 177.769531 61.03125 171.71875 60.152344 L 160.824219 58.617188 L 155.429688 47.914062 L 150.039062 37.214844 Z M 144.867188 47.917969 " fill-opacity="1" fill-rule="nonzero"/><g clip-path="url(#id2)"><path fill="#ffffff" d="M 111.691406 141.320312 C 108.5 150.046875 94.523438 189.835938 94.632812 189.945312 C 94.6875 190 99.914062 189.175781 106.1875 188.136719 L 117.632812 186.160156 L 125.171875 193.621094 L 132.707031 201.140625 L 133.257812 199.601562 C 133.589844 198.722656 137.222656 188.464844 141.347656 176.828125 C 145.472656 165.195312 148.832031 155.425781 148.832031 155.152344 C 148.832031 154.820312 146.792969 154.328125 144.316406 153.945312 C 135.238281 152.734375 124.289062 148.675781 116.585938 143.628906 C 114.824219 142.472656 113.011719 141.269531 112.625 141.046875 C 112.242188 140.773438 111.855469 140.882812 111.691406 141.320312 Z M 111.691406 141.320312 " fill-opacity="1" fill-rule="nonzero"/></g><path fill="#ffffff" d="M 184.316406 143.242188 C 175.789062 148.785156 165.777344 152.570312 156.09375 153.945312 C 153.453125 154.273438 151.25 154.601562 151.195312 154.65625 C 151.085938 154.710938 165.335938 195.214844 167.261719 200.425781 C 167.480469 200.976562 170.011719 198.835938 175.183594 193.675781 L 182.722656 186.160156 L 193.945312 188.078125 C 200.109375 189.179688 205.28125 189.945312 205.390625 189.78125 C 205.609375 189.617188 189.378906 143.078125 188.5 141.375 C 188.28125 140.9375 186.902344 141.539062 184.316406 143.242188 Z M 184.316406 143.242188 " fill-opacity="1" fill-rule="nonzero"/><g fill="#000000" fill-opacity="1"><g transform="translate(26.550737, 249.480455)"><g><path d="M 15.953125 0.609375 C 13.128906 0.609375 10.398438 0.226562 7.765625 -0.53125 C 5.140625 -1.300781 3.023438 -2.296875 1.421875 -3.515625 L 4.234375 -9.734375 C 5.753906 -8.609375 7.566406 -7.707031 9.671875 -7.03125 C 11.785156 -6.351562 13.894531 -6.015625 16 -6.015625 C 18.34375 -6.015625 20.070312 -6.359375 21.1875 -7.046875 C 22.3125 -7.742188 22.875 -8.671875 22.875 -9.828125 C 22.875 -10.679688 22.539062 -11.390625 21.875 -11.953125 C 21.21875 -12.515625 20.367188 -12.960938 19.328125 -13.296875 C 18.296875 -13.640625 16.898438 -14.015625 15.140625 -14.421875 C 12.421875 -15.066406 10.191406 -15.710938 8.453125 -16.359375 C 6.722656 -17.003906 5.238281 -18.039062 4 -19.46875 C 2.757812 -20.894531 2.140625 -22.796875 2.140625 -25.171875 C 2.140625 -27.242188 2.695312 -29.117188 3.8125 -30.796875 C 4.9375 -32.484375 6.628906 -33.816406 8.890625 -34.796875 C 11.148438 -35.785156 13.910156 -36.28125 17.171875 -36.28125 C 19.441406 -36.28125 21.664062 -36.003906 23.84375 -35.453125 C 26.019531 -34.910156 27.921875 -34.132812 29.546875 -33.125 L 27 -26.859375 C 23.707031 -28.722656 20.414062 -29.65625 17.125 -29.65625 C 14.8125 -29.65625 13.101562 -29.28125 12 -28.53125 C 10.894531 -27.78125 10.34375 -26.796875 10.34375 -25.578125 C 10.34375 -24.359375 10.976562 -23.445312 12.25 -22.84375 C 13.53125 -22.25 15.476562 -21.664062 18.09375 -21.09375 C 20.8125 -20.445312 23.035156 -19.800781 24.765625 -19.15625 C 26.492188 -18.507812 27.976562 -17.488281 29.21875 -16.09375 C 30.457031 -14.707031 31.078125 -12.828125 31.078125 -10.453125 C 31.078125 -8.410156 30.507812 -6.546875 29.375 -4.859375 C 28.238281 -3.179688 26.53125 -1.847656 24.25 -0.859375 C 21.976562 0.117188 19.210938 0.609375 15.953125 0.609375 Z M 15.953125 0.609375 "/></g></g></g><g fill="#000000" fill-opacity="1"><g transform="translate(61.552905, 249.480455)"><g><path d="M 14.71875 -27.828125 C 18.96875 -27.828125 22.226562 -26.8125 24.5 -24.78125 C 26.78125 -22.757812 27.921875 -19.710938 27.921875 -15.640625 L 27.921875 0 L 20.484375 0 L 20.484375 -3.40625 C 18.984375 -0.863281 16.195312 0.40625 12.125 0.40625 C 10.019531 0.40625 8.191406 0.0507812 6.640625 -0.65625 C 5.097656 -1.375 3.921875 -2.359375 3.109375 -3.609375 C 2.296875 -4.867188 1.890625 -6.296875 1.890625 -7.890625 C 1.890625 -10.441406 2.847656 -12.445312 4.765625 -13.90625 C 6.679688 -15.363281 9.644531 -16.09375 13.65625 -16.09375 L 19.96875 -16.09375 C 19.96875 -17.832031 19.441406 -19.164062 18.390625 -20.09375 C 17.335938 -21.03125 15.757812 -21.5 13.65625 -21.5 C 12.195312 -21.5 10.757812 -21.269531 9.34375 -20.8125 C 7.9375 -20.351562 6.738281 -19.734375 5.75 -18.953125 L 2.90625 -24.515625 C 4.394531 -25.566406 6.179688 -26.378906 8.265625 -26.953125 C 10.359375 -27.535156 12.507812 -27.828125 14.71875 -27.828125 Z M 14.109375 -4.9375 C 15.472656 -4.9375 16.679688 -5.25 17.734375 -5.875 C 18.785156 -6.507812 19.53125 -7.4375 19.96875 -8.65625 L 19.96875 -11.46875 L 14.515625 -11.46875 C 11.253906 -11.46875 9.625 -10.394531 9.625 -8.25 C 9.625 -7.226562 10.023438 -6.421875 10.828125 -5.828125 C 11.628906 -5.234375 12.722656 -4.9375 14.109375 -4.9375 Z M 14.109375 -4.9375 "/></g></g></g><g fill="#000000" fill-opacity="1"><g transform="translate(95.485154, 249.480455)"><g><path d="M 12.375 -26.796875 L 19.40625 -26.796875 L 19.40625 -20.6875 L 12.578125 -20.6875 L 12.578125 0 L 4.640625 0 L 4.640625 -20.6875 L 0.40625 -20.6875 L 0.40625 -26.796875 L 4.640625 -26.796875 L 4.640625 -28.03125 C 4.640625 -31.15625 5.5625 -33.632812 7.40625 -35.46875 C 9.257812 -37.300781 11.867188 -38.21875 15.234375 -38.21875 C 16.421875 -38.21875 17.550781 -38.085938 18.625 -37.828125 C 19.695312 -37.578125 20.585938 -37.210938 21.296875 -36.734375 L 19.203125 -30.984375 C 18.285156 -31.628906 17.21875 -31.953125 16 -31.953125 C 13.582031 -31.953125 12.375 -30.625 12.375 -27.96875 Z M 12.375 -26.796875 "/></g></g></g><g fill="#000000" fill-opacity="1"><g transform="translate(117.69918, 249.480455)"><g><path d="M 30.515625 -13.609375 C 30.515625 -13.503906 30.46875 -12.789062 30.375 -11.46875 L 9.625 -11.46875 C 10 -9.769531 10.882812 -8.425781 12.28125 -7.4375 C 13.675781 -6.457031 15.410156 -5.96875 17.484375 -5.96875 C 18.898438 -5.96875 20.160156 -6.175781 21.265625 -6.59375 C 22.367188 -7.019531 23.398438 -7.691406 24.359375 -8.609375 L 28.578125 -4.03125 C 26.003906 -1.070312 22.234375 0.40625 17.265625 0.40625 C 14.179688 0.40625 11.445312 -0.191406 9.0625 -1.390625 C 6.6875 -2.597656 4.851562 -4.269531 3.5625 -6.40625 C 2.269531 -8.550781 1.625 -10.984375 1.625 -13.703125 C 1.625 -16.390625 2.257812 -18.8125 3.53125 -20.96875 C 4.8125 -23.125 6.5625 -24.804688 8.78125 -26.015625 C 11.007812 -27.222656 13.5 -27.828125 16.25 -27.828125 C 18.9375 -27.828125 21.363281 -27.25 23.53125 -26.09375 C 25.707031 -24.9375 27.414062 -23.28125 28.65625 -21.125 C 29.894531 -18.96875 30.515625 -16.460938 30.515625 -13.609375 Z M 16.3125 -21.8125 C 14.507812 -21.8125 12.992188 -21.300781 11.765625 -20.28125 C 10.546875 -19.257812 9.800781 -17.863281 9.53125 -16.09375 L 23.03125 -16.09375 C 22.757812 -17.832031 22.007812 -19.21875 20.78125 -20.25 C 19.5625 -21.289062 18.070312 -21.8125 16.3125 -21.8125 Z M 16.3125 -21.8125 "/></g></g></g><g fill="#ffffff" fill-opacity="1"><g transform="translate(152.340233, 249.480455)"><g><path d="M 21.296875 0.609375 C 17.660156 0.609375 14.375 -0.175781 11.4375 -1.75 C 8.5 -3.332031 6.1875 -5.523438 4.5 -8.328125 C 2.820312 -11.128906 1.984375 -14.296875 1.984375 -17.828125 C 1.984375 -21.359375 2.820312 -24.523438 4.5 -27.328125 C 6.1875 -30.140625 8.5 -32.332031 11.4375 -33.90625 C 14.375 -35.488281 17.675781 -36.28125 21.34375 -36.28125 C 24.4375 -36.28125 27.226562 -35.734375 29.71875 -34.640625 C 32.21875 -33.554688 34.320312 -31.992188 36.03125 -29.953125 L 30.71875 -25.0625 C 28.3125 -27.851562 25.320312 -29.25 21.75 -29.25 C 19.539062 -29.25 17.570312 -28.765625 15.84375 -27.796875 C 14.113281 -26.828125 12.765625 -25.472656 11.796875 -23.734375 C 10.828125 -22.003906 10.34375 -20.035156 10.34375 -17.828125 C 10.34375 -15.617188 10.828125 -13.648438 11.796875 -11.921875 C 12.765625 -10.191406 14.113281 -8.84375 15.84375 -7.875 C 17.570312 -6.90625 19.539062 -6.421875 21.75 -6.421875 C 25.320312 -6.421875 28.3125 -7.832031 30.71875 -10.65625 L 36.03125 -5.75 C 34.320312 -3.6875 32.210938 -2.109375 29.703125 -1.015625 C 27.191406 0.0664062 24.390625 0.609375 21.296875 0.609375 Z M 21.296875 0.609375 "/></g></g></g><g fill="#ffffff" fill-opacity="1"><g transform="translate(192.182546, 249.480455)"><g><path d="M 30.515625 -13.609375 C 30.515625 -13.503906 30.46875 -12.789062 30.375 -11.46875 L 9.625 -11.46875 C 10 -9.769531 10.882812 -8.425781 12.28125 -7.4375 C 13.675781 -6.457031 15.410156 -5.96875 17.484375 -5.96875 C 18.898438 -5.96875 20.160156 -6.175781 21.265625 -6.59375 C 22.367188 -7.019531 23.398438 -7.691406 24.359375 -8.609375 L 28.578125 -4.03125 C 26.003906 -1.070312 22.234375 0.40625 17.265625 0.40625 C 14.179688 0.40625 11.445312 -0.191406 9.0625 -1.390625 C 6.6875 -2.597656 4.851562 -4.269531 3.5625 -6.40625 C 2.269531 -8.550781 1.625 -10.984375 1.625 -13.703125 C 1.625 -16.390625 2.257812 -18.8125 3.53125 -20.96875 C 4.8125 -23.125 6.5625 -24.804688 8.78125 -26.015625 C 11.007812 -27.222656 13.5 -27.828125 16.25 -27.828125 C 18.9375 -27.828125 21.363281 -27.25 23.53125 -26.09375 C 25.707031 -24.9375 27.414062 -23.28125 28.65625 -21.125 C 29.894531 -18.96875 30.515625 -16.460938 30.515625 -13.609375 Z M 16.3125 -21.8125 C 14.507812 -21.8125 12.992188 -21.300781 11.765625 -20.28125 C 10.546875 -19.257812 9.800781 -17.863281 9.53125 -16.09375 L 23.03125 -16.09375 C 22.757812 -17.832031 22.007812 -19.21875 20.78125 -20.25 C 19.5625 -21.289062 18.070312 -21.8125 16.3125 -21.8125 Z M 16.3125 -21.8125 "/></g></g></g><g fill="#ffffff" fill-opacity="1"><g transform="translate(226.828081, 249.480455)"><g><path d="M 11.265625 -23.796875 C 12.210938 -25.117188 13.492188 -26.117188 15.109375 -26.796875 C 16.722656 -27.484375 18.582031 -27.828125 20.6875 -27.828125 L 20.6875 -20.484375 C 19.800781 -20.546875 19.207031 -20.578125 18.90625 -20.578125 C 16.625 -20.578125 14.835938 -19.941406 13.546875 -18.671875 C 12.265625 -17.398438 11.625 -15.488281 11.625 -12.9375 L 11.625 0 L 3.671875 0 L 3.671875 -27.40625 L 11.265625 -27.40625 Z M 11.265625 -23.796875 "/></g></g></g><g fill="#ffffff" fill-opacity="1"><g transform="translate(251.28384, 249.480455)"><g><path d="M 21.34375 -1.328125 C 20.5625 -0.742188 19.601562 -0.304688 18.46875 -0.015625 C 17.332031 0.265625 16.132812 0.40625 14.875 0.40625 C 11.613281 0.40625 9.09375 -0.421875 7.3125 -2.078125 C 5.53125 -3.742188 4.640625 -6.191406 4.640625 -9.421875 L 4.640625 -20.6875 L 0.40625 -20.6875 L 0.40625 -26.796875 L 4.640625 -26.796875 L 4.640625 -33.46875 L 12.578125 -33.46875 L 12.578125 -26.796875 L 19.40625 -26.796875 L 19.40625 -20.6875 L 12.578125 -20.6875 L 12.578125 -9.53125 C 12.578125 -8.375 12.875 -7.476562 13.46875 -6.84375 C 14.070312 -6.21875 14.914062 -5.90625 16 -5.90625 C 17.257812 -5.90625 18.328125 -6.242188 19.203125 -6.921875 Z M 21.34375 -1.328125 "/></g></g></g></svg>